<svg xmlns="http://www.w3.org/2000/svg" width="18" height="15" viewBox="0 0 18 15">
  <metadata><?xpacket begin="﻿" id="W5M0MpCehiHzreSzNTczkc9d"?>
<x:xmpmeta xmlns:x="adobe:ns:meta/" x:xmptk="Adobe XMP Core 5.6-c138 79.159824, 2016/09/14-01:09:01        ">
   <rdf:RDF xmlns:rdf="http://www.w3.org/1999/02/22-rdf-syntax-ns#">
      <rdf:Description rdf:about=""/>
   </rdf:RDF>
</x:xmpmeta>
                                                                                                    
                                                                                                    
                                                                                                    
                                                                                                    
                                                                                                    
                                                                                                    
                                                                                                    
                                                                                                    
                                                                                                    
                                                                                                    
                                                                                                    
                                                                                                    
                                                                                                    
                                                                                                    
                                                                                                    
                                                                                                    
                                                                                                    
                                                                                                    
                                                                                                    
                                                                                                    
                           
<?xpacket end="w"?></metadata>
<defs>
    <style>
      .cls-1 {
        fill: #6a6a6a;
        fill-rule: evenodd;
      }
    </style>
  </defs>
  <path id="icon-twitter" class="cls-1" d="M2759.49,473.277a7.284,7.284,0,0,1-2.34.919,3.65,3.65,0,0,0-2.7-1.2,3.737,3.737,0,0,0-3.69,3.784,4.058,4.058,0,0,0,.1.862,10.391,10.391,0,0,1-7.61-3.954,3.853,3.853,0,0,0,1.14,5.052,3.625,3.625,0,0,1-1.67-.475v0.047a3.764,3.764,0,0,0,2.96,3.712,3.6,3.6,0,0,1-.97.133,3.692,3.692,0,0,1-.7-0.069,3.719,3.719,0,0,0,3.45,2.63,7.276,7.276,0,0,1-4.58,1.619,7.508,7.508,0,0,1-.88-0.052,10.251,10.251,0,0,0,5.66,1.7c6.78,0,10.5-5.767,10.5-10.769l-0.02-.49a7.543,7.543,0,0,0,1.85-1.957,7.21,7.21,0,0,1-2.12.6A3.767,3.767,0,0,0,2759.49,473.277Z" transform="translate(-2742 -473)"/>
</svg>
