<svg xmlns="http://www.w3.org/2000/svg" width="16" height="15" viewBox="0 0 16 15">
  <metadata><?xpacket begin="﻿" id="W5M0MpCehiHzreSzNTczkc9d"?>
<x:xmpmeta xmlns:x="adobe:ns:meta/" x:xmptk="Adobe XMP Core 5.6-c138 79.159824, 2016/09/14-01:09:01        ">
   <rdf:RDF xmlns:rdf="http://www.w3.org/1999/02/22-rdf-syntax-ns#">
      <rdf:Description rdf:about=""/>
   </rdf:RDF>
</x:xmpmeta>
                                                                                                    
                                                                                                    
                                                                                                    
                                                                                                    
                                                                                                    
                                                                                                    
                                                                                                    
                                                                                                    
                                                                                                    
                                                                                                    
                                                                                                    
                                                                                                    
                                                                                                    
                                                                                                    
                                                                                                    
                                                                                                    
                                                                                                    
                                                                                                    
                                                                                                    
                                                                                                    
                           
<?xpacket end="w"?></metadata>
<defs>
    <style>
      .cls-1 {
        fill: #6a6a6a;
        fill-rule: evenodd;
      }
    </style>
  </defs>
  <path id="icon-linkedin" class="cls-1" d="M2832.01,482.193V488h-3.44v-5.418c0-1.362-.49-2.29-1.73-2.29a1.888,1.888,0,0,0-1.77,1.231,2.282,2.282,0,0,0-.11.821V488h-3.44s0.05-9.177,0-10.128h3.44v1.436a0.057,0.057,0,0,0-.02.032h0.02v-0.032a3.422,3.422,0,0,1,3.09-1.674C2830.31,477.634,2832.01,479.082,2832.01,482.193Zm-14.08-9.2a1.758,1.758,0,1,0-.04,3.5h0.02A1.758,1.758,0,1,0,2817.93,472.99ZM2816.19,488h3.44V477.872h-3.44V488Z" transform="translate(-2816 -473)"/>
</svg>
