<svg xmlns="http://www.w3.org/2000/svg" width="15" height="15" viewBox="0 0 15 15">
  <metadata><?xpacket begin="﻿" id="W5M0MpCehiHzreSzNTczkc9d"?>
<x:xmpmeta xmlns:x="adobe:ns:meta/" x:xmptk="Adobe XMP Core 5.6-c138 79.159824, 2016/09/14-01:09:01        ">
   <rdf:RDF xmlns:rdf="http://www.w3.org/1999/02/22-rdf-syntax-ns#">
      <rdf:Description rdf:about=""/>
   </rdf:RDF>
</x:xmpmeta>
                                                                                                    
                                                                                                    
                                                                                                    
                                                                                                    
                                                                                                    
                                                                                                    
                                                                                                    
                                                                                                    
                                                                                                    
                                                                                                    
                                                                                                    
                                                                                                    
                                                                                                    
                                                                                                    
                                                                                                    
                                                                                                    
                                                                                                    
                                                                                                    
                                                                                                    
                                                                                                    
                           
<?xpacket end="w"?></metadata>
<defs>
    <style>
      .cls-1 {
        fill: #6a6a6a;
        fill-rule: evenodd;
      }
    </style>
  </defs>
  <path id="icon-instagram" class="cls-1" d="M2792.54,477.038a0.579,0.579,0,0,1-.58-0.576v-1.154a0.579,0.579,0,0,1,.58-0.577h1.15a0.579,0.579,0,0,1,.58.577v1.154a0.579,0.579,0,0,1-.58.576h-1.15Zm-4.04,1.263a2.18,2.18,0,0,0-1.14.325,1.1,1.1,0,0,1,.33-0.054,1.116,1.116,0,1,1-1.12,1.116,0.89,0.89,0,0,1,.06-0.326,2.116,2.116,0,0,0-.33,1.138A2.2,2.2,0,1,0,2788.5,478.3Zm0-1.263a3.462,3.462,0,1,1-3.46,3.462,3.462,3.462,0,0,1,3.46-3.462m0-1.153a4.615,4.615,0,1,0,4.62,4.615A4.627,4.627,0,0,0,2788.5,475.885Zm4.69-2.885h-9.38a2.812,2.812,0,0,0-2.81,2.813v9.375a2.812,2.812,0,0,0,2.81,2.812h9.38a2.812,2.812,0,0,0,2.81-2.812v-9.375A2.812,2.812,0,0,0,2793.19,473Zm1.66,5.192h-3.78a3.46,3.46,0,1,1-5.14,0h-3.78v-2.379a1.665,1.665,0,0,1,1.66-1.659h9.38a1.665,1.665,0,0,1,1.66,1.659v2.379Z" transform="translate(-2781 -473)"/>
</svg>
