<svg xmlns="http://www.w3.org/2000/svg" width="21" height="14" viewBox="0 0 21 14">
  <metadata><?xpacket begin="﻿" id="W5M0MpCehiHzreSzNTczkc9d"?>
<x:xmpmeta xmlns:x="adobe:ns:meta/" x:xmptk="Adobe XMP Core 5.6-c138 79.159824, 2016/09/14-01:09:01        ">
   <rdf:RDF xmlns:rdf="http://www.w3.org/1999/02/22-rdf-syntax-ns#">
      <rdf:Description rdf:about=""/>
   </rdf:RDF>
</x:xmpmeta>
                                                                                                    
                                                                                                    
                                                                                                    
                                                                                                    
                                                                                                    
                                                                                                    
                                                                                                    
                                                                                                    
                                                                                                    
                                                                                                    
                                                                                                    
                                                                                                    
                                                                                                    
                                                                                                    
                                                                                                    
                                                                                                    
                                                                                                    
                                                                                                    
                                                                                                    
                                                                                                    
                           
<?xpacket end="w"?></metadata>
<defs>
    <style>
      .cls-1 {
        fill: #6a6a6a;
        fill-rule: evenodd;
      }
    </style>
  </defs>
  <path id="icon-mail" class="cls-1" d="M2682.53,482.4h0a0.788,0.788,0,0,0,.44-0.129l0.04-.022a0.039,0.039,0,0,1,.02-0.015l0.4-.329,9.55-7.855a0.124,0.124,0,0,0-.09-0.046h-20.78a0.125,0.125,0,0,0-.07.025l9.99,8.208A0.806,0.806,0,0,0,2682.53,482.4ZM2672,475.113v11.643l7.16-5.763Zm13.85,5.919,7.15,5.727V475.152Zm-2.27,1.869a1.708,1.708,0,0,1-2.1,0l-1.64-1.347-7.84,6.313v0.02a0.112,0.112,0,0,0,.11.111h20.78a0.112,0.112,0,0,0,.11-0.111V487.87l-7.83-6.275Z" transform="translate(-2672 -474)"/>
</svg>
