<svg xmlns="http://www.w3.org/2000/svg" width="25" height="17" viewBox="0 0 25 17">
  <metadata><?xpacket begin="﻿" id="W5M0MpCehiHzreSzNTczkc9d"?>
<x:xmpmeta xmlns:x="adobe:ns:meta/" x:xmptk="Adobe XMP Core 5.6-c138 79.159824, 2016/09/14-01:09:01        ">
   <rdf:RDF xmlns:rdf="http://www.w3.org/1999/02/22-rdf-syntax-ns#">
      <rdf:Description rdf:about=""/>
   </rdf:RDF>
</x:xmpmeta>
                                                                                                    
                                                                                                    
                                                                                                    
                                                                                                    
                                                                                                    
                                                                                                    
                                                                                                    
                                                                                                    
                                                                                                    
                                                                                                    
                                                                                                    
                                                                                                    
                                                                                                    
                                                                                                    
                                                                                                    
                                                                                                    
                                                                                                    
                                                                                                    
                                                                                                    
                                                                                                    
                           
<?xpacket end="w"?></metadata>
<defs>
    <style>
      .cls-1 {
        fill-rule: evenodd;
      }
    </style>
  </defs>
  <path id="icon-mail" class="cls-1" d="M2279,5055.47a0.525,0.525,0,0,1-.52.53h-23.96a0.525,0.525,0,0,1-.52-0.53v-15.94a0.525,0.525,0,0,1,.52-0.53h23.96a0.525,0.525,0,0,1,.52.53v15.94Zm-23.96-.53h22.92v-14.88h-22.92v14.88Zm11.58-5.8a0.585,0.585,0,0,1-.22-0.05l-11.45-5.31a0.534,0.534,0,0,1-.26-0.71,0.52,0.52,0,0,1,.69-0.26l11.46,5.31a0.539,0.539,0,0,1,.25.71A0.512,0.512,0,0,1,2266.62,5049.14Zm0,0a0.512,0.512,0,0,1-.47-0.31,0.539,0.539,0,0,1,.25-0.71l11.46-5.31a0.52,0.52,0,0,1,.69.26,0.534,0.534,0,0,1-.26.71l-11.45,5.31A0.585,0.585,0,0,1,2266.62,5049.14Z" transform="translate(-2254 -5039)"/>
</svg>
