<svg xmlns="http://www.w3.org/2000/svg" width="8" height="15" viewBox="0 0 8 15">
  <metadata><?xpacket begin="﻿" id="W5M0MpCehiHzreSzNTczkc9d"?>
<x:xmpmeta xmlns:x="adobe:ns:meta/" x:xmptk="Adobe XMP Core 5.6-c138 79.159824, 2016/09/14-01:09:01        ">
   <rdf:RDF xmlns:rdf="http://www.w3.org/1999/02/22-rdf-syntax-ns#">
      <rdf:Description rdf:about=""/>
   </rdf:RDF>
</x:xmpmeta>
                                                                                                    
                                                                                                    
                                                                                                    
                                                                                                    
                                                                                                    
                                                                                                    
                                                                                                    
                                                                                                    
                                                                                                    
                                                                                                    
                                                                                                    
                                                                                                    
                                                                                                    
                                                                                                    
                                                                                                    
                                                                                                    
                                                                                                    
                                                                                                    
                                                                                                    
                                                                                                    
                           
<?xpacket end="w"?></metadata>
<defs>
    <style>
      .cls-1 {
        fill: #6a6a6a;
        fill-rule: evenodd;
      }
    </style>
  </defs>
  <path id="icon-facebook" class="cls-1" d="M2721.7,473l-1.92,0a3.4,3.4,0,0,0-3.56,3.693v1.7h-1.93a0.3,0.3,0,0,0-.3.306v2.467a0.3,0.3,0,0,0,.3.306h1.93V487.7a0.309,0.309,0,0,0,.31.306h2.52a0.3,0.3,0,0,0,.3-0.306v-6.226h2.26a0.3,0.3,0,0,0,.3-0.306V478.7a0.331,0.331,0,0,0-.08-0.216,0.319,0.319,0,0,0-.22-0.09h-2.26v-1.444a0.866,0.866,0,0,1,1.06-1.046h1.29a0.3,0.3,0,0,0,.3-0.306v-2.291A0.3,0.3,0,0,0,2721.7,473Z" transform="translate(-2714 -473)"/>
</svg>
