<svg xmlns="http://www.w3.org/2000/svg" width="193" height="60" viewBox="0 0 193 60">
  <metadata><?xpacket begin="﻿" id="W5M0MpCehiHzreSzNTczkc9d"?>
<x:xmpmeta xmlns:x="adobe:ns:meta/" x:xmptk="Adobe XMP Core 5.6-c138 79.159824, 2016/09/14-01:09:01        ">
   <rdf:RDF xmlns:rdf="http://www.w3.org/1999/02/22-rdf-syntax-ns#">
      <rdf:Description rdf:about=""/>
   </rdf:RDF>
</x:xmpmeta>
                                                                                                    
                                                                                                    
                                                                                                    
                                                                                                    
                                                                                                    
                                                                                                    
                                                                                                    
                                                                                                    
                                                                                                    
                                                                                                    
                                                                                                    
                                                                                                    
                                                                                                    
                                                                                                    
                                                                                                    
                                                                                                    
                                                                                                    
                                                                                                    
                                                                                                    
                                                                                                    
                           
<?xpacket end="w"?></metadata>
<defs>
    <style>
      .cls-1 {
        fill: #2d2d2d;
        fill-rule: evenodd;
      }
    </style>
  </defs>
  <path id="konstantin_torkhov" data-name="konstantin torkhov" class="cls-1" d="M1076.41,439l-8.04,7.834L1052,463l6,5,10-10,0.37,33.166,8.04,7.834V439Zm4.21,36.167L1097,459.2v11.3l-8.8,8.583,8.8,8.584V499l-16.38-15.97m42.3,1.97h1.58l-2.67-3.616-0.8-.64,0.66-.528,2.45-3.216h-1.49l-2.48,3.392-0.66.224V473.8h-1.28V485h1.28v-3.6h0.74Zm2.54-2.28a3.827,3.827,0,0,0,.64,1.328,2.875,2.875,0,0,0,1.1.848,3.792,3.792,0,0,0,1.56.3,3.2,3.2,0,0,0,2.6-1.08,4.742,4.742,0,0,0,.9-3.112,7.05,7.05,0,0,0-.2-1.72,3.827,3.827,0,0,0-.64-1.328,2.875,2.875,0,0,0-1.1-.848,3.792,3.792,0,0,0-1.56-.3,3.2,3.2,0,0,0-2.6,1.08,4.742,4.742,0,0,0-.9,3.112A7.05,7.05,0,0,0,1125.46,482.72Zm3.3-4.792a1.964,1.964,0,0,1,1.01.248,1.919,1.919,0,0,1,.67.664,3.1,3.1,0,0,1,.38.976,5.638,5.638,0,0,1,.12,1.184c0,2.059-.73,3.083-2.18,3.072a1.909,1.909,0,0,1-1.01-.256,1.994,1.994,0,0,1-.67-0.672,3.1,3.1,0,0,1-.38-0.976,5.561,5.561,0,0,1-.12-1.168c0-2.059.73-3.083,2.18-3.072h0ZM1140.7,485v-4.832a6.771,6.771,0,0,0-.17-1.64,2.515,2.515,0,0,0-.5-1.032,1.72,1.72,0,0,0-.82-0.536,3.97,3.97,0,0,0-1.15-.152,3.39,3.39,0,0,0-1.55.328,2.95,2.95,0,0,0-1.03.84h-0.06l-0.24-.976h-0.9v8h1.28v-5.472a2.425,2.425,0,0,1,.78-1.144,2.1,2.1,0,0,1,1.4-.456,1.387,1.387,0,0,1,1.32.632,3.886,3.886,0,0,1,.36,1.88V485h1.28Zm5.4-1.2a2.115,2.115,0,0,1-1.13.272,4.154,4.154,0,0,1-1.2-.176,4.432,4.432,0,0,1-.96-0.384l-0.39,1.088a4.926,4.926,0,0,0,1.08.416,5.875,5.875,0,0,0,1.55.176,3.609,3.609,0,0,0,1.22-.184,2.448,2.448,0,0,0,.87-0.5,1.869,1.869,0,0,0,.52-0.768,2.548,2.548,0,0,0,.17-0.96,2.022,2.022,0,0,0-.29-1.16,2.579,2.579,0,0,0-.71-0.728,3.851,3.851,0,0,0-.93-0.464c-0.33-.117-0.64-0.237-0.92-0.36a3.173,3.173,0,0,1-.72-0.416,0.786,0.786,0,0,1-.28-0.648,0.985,0.985,0,0,1,.32-0.832,1.794,1.794,0,0,1,1.04-.24,4.4,4.4,0,0,1,1.11.136,5.449,5.449,0,0,1,.89.312l0.3-1.056a5.638,5.638,0,0,0-1.02-.36,5.835,5.835,0,0,0-1.44-.152,2.828,2.828,0,0,0-1.83.536,2.043,2.043,0,0,0-.65,1.688,1.952,1.952,0,0,0,.28,1.12,2.443,2.443,0,0,0,.72.68,4.363,4.363,0,0,0,.92.432q0.51,0.168.93,0.352a2.45,2.45,0,0,1,.71.456,0.957,0.957,0,0,1,.29.752A1.046,1.046,0,0,1,1146.1,483.8Zm2.61-5.68h1.25v4.672a3.211,3.211,0,0,0,.4,1.848,1.587,1.587,0,0,0,1.38.552,4.545,4.545,0,0,0,1.1-.128,4.685,4.685,0,0,0,.94-0.336l-0.28-.976c-0.24.1-.45,0.173-0.64,0.232a2.493,2.493,0,0,1-.71.088,0.752,0.752,0,0,1-.7-0.344,2.393,2.393,0,0,1-.21-1.176V478.12h2.18V477h-2.18v-1.952l-1.28.368V477h-1.25v1.12Zm6.75,0.448a3.5,3.5,0,0,1,.52-0.239,5.575,5.575,0,0,1,.63-0.181c0.22-.049.43-0.087,0.64-0.115a4.538,4.538,0,0,1,.58-0.041,1.79,1.79,0,0,1,1.28.352,1.693,1.693,0,0,1,.35,1.232c0,0.256-.01.544-0.04,0.864a3.211,3.211,0,0,0-.44-0.032h-0.44a9.872,9.872,0,0,0-1.61.12,3.985,3.985,0,0,0-1.25.4,2.046,2.046,0,0,0-.81.752,2.242,2.242,0,0,0-.29,1.176,2.2,2.2,0,0,0,.19.944,2.131,2.131,0,0,0,.5.712,2.234,2.234,0,0,0,.76.456,2.738,2.738,0,0,0,.95.16,3.461,3.461,0,0,0,.92-0.112,3.35,3.35,0,0,0,.7-0.28,2.278,2.278,0,0,0,.52-0.384,3.161,3.161,0,0,0,.36-0.44h0.08l0.34,1.12h0.94a5.59,5.59,0,0,1-.18-0.976c-0.03-.352-0.04-0.725-0.04-1.12,0-.544.01-1.12,0.04-1.728s0.05-1.232.05-1.872a4.226,4.226,0,0,0-.09-0.864,1.959,1.959,0,0,0-.35-0.792,1.8,1.8,0,0,0-.77-0.584,3.3,3.3,0,0,0-1.33-.224,7.938,7.938,0,0,0-1.69.176,4.667,4.667,0,0,0-1.42.544Zm0.85,5.08a1.172,1.172,0,0,1-.4-0.92,0.984,0.984,0,0,1,.22-0.664,1.409,1.409,0,0,1,.57-0.416,3.075,3.075,0,0,1,.84-0.208,8.1,8.1,0,0,1,.96-0.056c0.15,0,.3,0,0.46.008s0.31,0.013.46,0.024v1.328a2.172,2.172,0,0,1-.25.432,1.956,1.956,0,0,1-.43.408,2.312,2.312,0,0,1-.6.3,2.534,2.534,0,0,1-.8.12A1.487,1.487,0,0,1,1156.31,483.648ZM1169.54,485v-4.832a6.829,6.829,0,0,0-.16-1.64,2.646,2.646,0,0,0-.5-1.032,1.72,1.72,0,0,0-.82-0.536,4.042,4.042,0,0,0-1.16-.152,3.376,3.376,0,0,0-1.54.328,2.862,2.862,0,0,0-1.03.84h-0.07l-0.24-.976h-0.89v8h1.28v-5.472a2.48,2.48,0,0,1,.77-1.144,2.139,2.139,0,0,1,1.4-.456,1.387,1.387,0,0,1,1.32.632,3.886,3.886,0,0,1,.36,1.88V485h1.28Zm1.28-6.88h1.25v4.672a3.211,3.211,0,0,0,.4,1.848,1.6,1.6,0,0,0,1.38.552,4.545,4.545,0,0,0,1.1-.128,5.019,5.019,0,0,0,.95-0.336l-0.29-.976c-0.24.1-.45,0.173-0.64,0.232a2.446,2.446,0,0,1-.71.088,0.752,0.752,0,0,1-.7-0.344,2.393,2.393,0,0,1-.21-1.176V478.12h2.18V477h-2.18v-1.952l-1.28.368V477h-1.25v1.12Zm6.76,6.88h1.28v-8h-1.28v8Zm-0.03-9.824a0.884,0.884,0,0,0,.63.24,0.958,0.958,0,0,0,.66-0.24,0.779,0.779,0,0,0,.27-0.608,0.853,0.853,0,0,0-.27-0.632,0.908,0.908,0,0,0-.66-0.264,0.841,0.841,0,0,0-.63.264,0.917,0.917,0,0,0-.25.632A0.832,0.832,0,0,0,1177.55,475.176ZM1188.01,485v-4.832a6.771,6.771,0,0,0-.17-1.64,2.515,2.515,0,0,0-.5-1.032,1.72,1.72,0,0,0-.82-0.536,3.97,3.97,0,0,0-1.15-.152,3.39,3.39,0,0,0-1.55.328,2.95,2.95,0,0,0-1.03.84h-0.06l-0.24-.976h-0.9v8h1.28v-5.472a2.425,2.425,0,0,1,.78-1.144,2.1,2.1,0,0,1,1.4-.456,1.387,1.387,0,0,1,1.32.632,3.886,3.886,0,0,1,.36,1.88V485h1.28Zm5.55-6.88h1.25v4.672a3.211,3.211,0,0,0,.4,1.848,1.567,1.567,0,0,0,1.37.552,4.57,4.57,0,0,0,1.11-.128,4.918,4.918,0,0,0,.94-0.336l-0.29-.976c-0.23.1-.45,0.173-0.64,0.232a2.373,2.373,0,0,1-.7.088,0.769,0.769,0,0,1-.71-0.344,2.539,2.539,0,0,1-.2-1.176V478.12h2.17V477h-2.17v-1.952l-1.28.368V477h-1.25v1.12Zm6.06,4.6a3.658,3.658,0,0,0,.64,1.328,2.875,2.875,0,0,0,1.1.848,3.792,3.792,0,0,0,1.56.3,3.2,3.2,0,0,0,2.6-1.08,4.742,4.742,0,0,0,.9-3.112,6.579,6.579,0,0,0-.21-1.72,3.5,3.5,0,0,0-.64-1.328,2.769,2.769,0,0,0-1.09-.848,3.792,3.792,0,0,0-1.56-.3,3.2,3.2,0,0,0-2.6,1.08,4.743,4.743,0,0,0-.91,3.112A6.579,6.579,0,0,0,1199.62,482.72Zm3.3-4.792a1.964,1.964,0,0,1,1.01.248,2.006,2.006,0,0,1,.67.664,3.09,3.09,0,0,1,.37.976,5.638,5.638,0,0,1,.12,1.184c0,2.059-.72,3.083-2.17,3.072a1.885,1.885,0,0,1-1.01-.256,1.994,1.994,0,0,1-.67-0.672,3.1,3.1,0,0,1-.38-0.976,5.561,5.561,0,0,1-.12-1.168c0-2.059.73-3.083,2.18-3.072h0Zm9.57-.928a3.943,3.943,0,0,0-1.04-.16,1.835,1.835,0,0,0-1.08.3,2.363,2.363,0,0,0-.73.84h-0.07l-0.24-.976h-0.89v8h1.28v-5.6a1.645,1.645,0,0,1,.49-0.952,1.532,1.532,0,0,1,1.09-.376,2.855,2.855,0,0,1,.91.16Zm6.08,8h1.58l-2.67-3.616-0.8-.64,0.65-.528,2.45-3.216h-1.49l-2.48,3.392-0.65.224V473.8h-1.28V485h1.28v-3.6h0.73Zm9.39,0v-4.832a7.454,7.454,0,0,0-.15-1.64,2.382,2.382,0,0,0-.48-1.032,1.749,1.749,0,0,0-.83-0.536,4.017,4.017,0,0,0-1.17-.152,3.171,3.171,0,0,0-1.44.3,3.055,3.055,0,0,0-1,.792h-0.07v-4.1h-1.28V485h1.28v-5.328a2.192,2.192,0,0,1,.79-1.256,2.112,2.112,0,0,1,1.36-.488,1.938,1.938,0,0,1,.85.16,1.241,1.241,0,0,1,.52.472,2.086,2.086,0,0,1,.27.784,8.643,8.643,0,0,1,.07,1.1V485h1.28Zm2.09-2.28a3.827,3.827,0,0,0,.64,1.328,2.875,2.875,0,0,0,1.1.848,3.792,3.792,0,0,0,1.56.3,3.2,3.2,0,0,0,2.6-1.08,4.742,4.742,0,0,0,.9-3.112,6.593,6.593,0,0,0-.2-1.72,3.827,3.827,0,0,0-.64-1.328,2.875,2.875,0,0,0-1.1-.848,3.792,3.792,0,0,0-1.56-.3,3.2,3.2,0,0,0-2.6,1.08,4.742,4.742,0,0,0-.9,3.112A7.05,7.05,0,0,0,1230.05,482.72Zm3.3-4.792a1.939,1.939,0,0,1,1.01.248,1.919,1.919,0,0,1,.67.664,3.1,3.1,0,0,1,.38.976,5.638,5.638,0,0,1,.12,1.184c0,2.059-.73,3.083-2.18,3.072a1.909,1.909,0,0,1-1.01-.256,2.088,2.088,0,0,1-.67-0.672,3.1,3.1,0,0,1-.38-0.976,5.561,5.561,0,0,1-.12-1.168c0-2.059.73-3.083,2.18-3.072h0Zm5.71-.928h-1.47l3.47,8.176h0.55l3.4-8.176h-1.37l-1.79,4.656-0.4,1.552h-0.02l-0.45-1.52Z" transform="translate(-1052 -439)"/>
</svg>
