<svg xmlns="http://www.w3.org/2000/svg" width="126.72" height="26" viewBox="0 0 126.72 26">
  <metadata><?xpacket begin="﻿" id="W5M0MpCehiHzreSzNTczkc9d"?>
<x:xmpmeta xmlns:x="adobe:ns:meta/" x:xmptk="Adobe XMP Core 5.6-c138 79.159824, 2016/09/14-01:09:01        ">
   <rdf:RDF xmlns:rdf="http://www.w3.org/1999/02/22-rdf-syntax-ns#">
      <rdf:Description rdf:about=""/>
   </rdf:RDF>
</x:xmpmeta>
                                                                                                    
                                                                                                    
                                                                                                    
                                                                                                    
                                                                                                    
                                                                                                    
                                                                                                    
                                                                                                    
                                                                                                    
                                                                                                    
                                                                                                    
                                                                                                    
                                                                                                    
                                                                                                    
                                                                                                    
                                                                                                    
                                                                                                    
                                                                                                    
                                                                                                    
                                                                                                    
                           
<?xpacket end="w"?></metadata>
<defs>
    <style>
      .cls-1 {
        fill: #2d2d2d;
        fill-rule: evenodd;
      }
    </style>
  </defs>
  <path id="play_video" data-name="play video" class="cls-1" d="M1941.72,6221.66a5.652,5.652,0,0,0,1.9-2.55,10.78,10.78,0,0,0,.67-3.95,9,9,0,0,0-1.43-5.4,4.6,4.6,0,0,0-3.93-1.94,4.482,4.482,0,0,0-4.03,2.11h-0.17l-0.55-1.84h-3.15v20.44h3.87v-5.75c0-.19-0.06-0.88-0.2-2.06h0.2a4.717,4.717,0,0,0,3.93,1.81A4.89,4.89,0,0,0,1941.72,6221.66Zm-2.02-9.69a6.167,6.167,0,0,1,.64,3.14q0,4.29-2.61,4.29a2.431,2.431,0,0,1-2.15-.99,6.006,6.006,0,0,1-.68-3.28v-0.42a5.088,5.088,0,0,1,.69-2.91,2.437,2.437,0,0,1,2.09-.88A2.2,2.2,0,0,1,1939.7,6211.97Zm11.4-9.44h-3.88v19.75h3.88v-19.75Zm15.52,19.75v-9.46a4.586,4.586,0,0,0-1.53-3.78,6.744,6.744,0,0,0-4.38-1.24,11.449,11.449,0,0,0-5.43,1.28l1.28,2.61a10.18,10.18,0,0,1,4-1.03,1.933,1.933,0,0,1,2.21,2.16v0.62l-2.46.08a9.132,9.132,0,0,0-4.77,1.19,3.739,3.739,0,0,0-1.58,3.33,4.5,4.5,0,0,0,1.17,3.33,4.372,4.372,0,0,0,3.22,1.16,6.476,6.476,0,0,0,2.7-.47,5.745,5.745,0,0,0,2.01-1.71h0.1l0.75,1.93h2.71Zm-3.85-5.41a2.719,2.719,0,0,1-.81,2.06,2.937,2.937,0,0,1-2.15.77c-1.25,0-1.88-.54-1.88-1.63a1.932,1.932,0,0,1,.83-1.71,4.791,4.791,0,0,1,2.51-.6l1.5-.06v1.17Zm11.18,5.31-0.23.7a4.155,4.155,0,0,1-1.2,1.9,2.79,2.79,0,0,1-1.8.62,6.626,6.626,0,0,1-1.52-.16v3.07a9.22,9.22,0,0,0,1.97.22,5.918,5.918,0,0,0,3.57-1.11,6.893,6.893,0,0,0,2.36-3.32l6-16.01h-4.15l-2.63,7.98a10.722,10.722,0,0,0-.54,2.47h-0.08a10.848,10.848,0,0,0-.47-2.47l-2.68-7.98h-4.24Zm24.77,0.1,5.41-14.19h-4.05l-2.73,8.08a12.518,12.518,0,0,0-.57,2.91h-0.08a15.211,15.211,0,0,0-.57-2.91l-2.74-8.08h-4.05l5.4,14.19h3.98Zm9.12-15.96a2.189,2.189,0,0,0,1.58-.5,1.839,1.839,0,0,0,.53-1.4c0-1.26-.71-1.89-2.11-1.89s-2.11.63-2.11,1.89,0.7,1.9,2.11,1.9h0Zm1.93,1.77h-3.87v14.19h3.87v-14.19Zm12.32,12.35h0.17l0.74,1.84h2.97v-19.75h-3.88v4.54a16.162,16.162,0,0,0,.29,2.83h-0.12a4.635,4.635,0,0,0-4.09-2.08,4.731,4.731,0,0,0-4.01,1.95,10.883,10.883,0,0,0-.02,10.82,4.591,4.591,0,0,0,3.93,1.94,4.416,4.416,0,0,0,4.02-2.09h0Zm-4.74-2.04a5.563,5.563,0,0,1-.72-3.14,5.817,5.817,0,0,1,.72-3.19,2.281,2.281,0,0,1,2.01-1.1,2.612,2.612,0,0,1,2.29.99,5.782,5.782,0,0,1,.71,3.27v0.42a5.124,5.124,0,0,1-.76,2.94,2.643,2.643,0,0,1-2.18.86A2.381,2.381,0,0,1,2017.35,6218.4Zm20.25-7.04a3.251,3.251,0,0,1,.75,2.21h-5.44a3.66,3.66,0,0,1,.8-2.21,2.466,2.466,0,0,1,1.93-.78A2.546,2.546,0,0,1,2037.6,6211.36Zm1.41,10.93a9.3,9.3,0,0,0,2.17-.76v-2.99a12.311,12.311,0,0,1-2.39.85,11.082,11.082,0,0,1-2.42.26,3.482,3.482,0,0,1-2.57-.92,3.773,3.773,0,0,1-.98-2.58h9.16v-1.88a6.5,6.5,0,0,0-1.68-4.74,6.262,6.262,0,0,0-4.68-1.71,6.33,6.33,0,0,0-4.93,1.95,7.884,7.884,0,0,0-1.79,5.52,7.13,7.13,0,0,0,1.93,5.35,7.334,7.334,0,0,0,5.36,1.89A14.113,14.113,0,0,0,2039.01,6222.29Zm9.63-10.3a2.456,2.456,0,0,1,2.23-1.05,2.5,2.5,0,0,1,2.25,1.06,5.818,5.818,0,0,1,.68,3.16,5.958,5.958,0,0,1-.68,3.19,2.409,2.409,0,0,1-2.22,1.07,2.5,2.5,0,0,1-2.26-1.07,6,6,0,0,1-.69-3.19A5.849,5.849,0,0,1,2048.64,6211.99Zm8.29-.73a5.922,5.922,0,0,0-2.4-2.55,7.209,7.209,0,0,0-3.61-.89,6.649,6.649,0,0,0-5.1,1.93,7.6,7.6,0,0,0-1.82,5.41,8.627,8.627,0,0,0,.84,3.91,5.972,5.972,0,0,0,2.4,2.57,7.081,7.081,0,0,0,3.61.89,6.645,6.645,0,0,0,5.09-1.95,7.611,7.611,0,0,0,1.82-5.42A8.553,8.553,0,0,0,2056.93,6211.26Z" transform="translate(-1931.03 -6202.53)"/>
</svg>
