<svg xmlns="http://www.w3.org/2000/svg" width="63" height="23.87" viewBox="0 0 63 23.87">
  <metadata><?xpacket begin="﻿" id="W5M0MpCehiHzreSzNTczkc9d"?>
<x:xmpmeta xmlns:x="adobe:ns:meta/" x:xmptk="Adobe XMP Core 5.6-c138 79.159824, 2016/09/14-01:09:01        ">
   <rdf:RDF xmlns:rdf="http://www.w3.org/1999/02/22-rdf-syntax-ns#">
      <rdf:Description rdf:about=""/>
   </rdf:RDF>
</x:xmpmeta>
                                                                                                    
                                                                                                    
                                                                                                    
                                                                                                    
                                                                                                    
                                                                                                    
                                                                                                    
                                                                                                    
                                                                                                    
                                                                                                    
                                                                                                    
                                                                                                    
                                                                                                    
                                                                                                    
                                                                                                    
                                                                                                    
                                                                                                    
                                                                                                    
                                                                                                    
                                                                                                    
                           
<?xpacket end="w"?></metadata>
<defs>
    <style>
      .cls-1 {
        fill-rule: evenodd;
      }
    </style>
  </defs>
  <path id="icon_right" class="cls-1" d="M1536.15,2373.49a0.985,0.985,0,0,0,.22,1.39,0.906,0.906,0,0,0,.22.11h0.71a0.906,0.906,0,0,0,.47-0.33l8-10.98a1.244,1.244,0,0,0,.1-0.2,0.91,0.91,0,0,0,.13-0.46,0.984,0.984,0,0,0-.46-0.82l-7.77-10.67a1.014,1.014,0,0,0-1.4-.22,1,1,0,0,0-.22,1.4l6.79,9.31H1484a1,1,0,0,0,0,2h59.05Z" transform="translate(-1483 -2351.13)"/>
</svg>
