<svg xmlns="http://www.w3.org/2000/svg" width="27" height="45" viewBox="0 0 27 45">
  <metadata><?xpacket begin="﻿" id="W5M0MpCehiHzreSzNTczkc9d"?>
<x:xmpmeta xmlns:x="adobe:ns:meta/" x:xmptk="Adobe XMP Core 5.6-c138 79.159824, 2016/09/14-01:09:01        ">
   <rdf:RDF xmlns:rdf="http://www.w3.org/1999/02/22-rdf-syntax-ns#">
      <rdf:Description rdf:about=""/>
   </rdf:RDF>
</x:xmpmeta>
                                                                                                    
                                                                                                    
                                                                                                    
                                                                                                    
                                                                                                    
                                                                                                    
                                                                                                    
                                                                                                    
                                                                                                    
                                                                                                    
                                                                                                    
                                                                                                    
                                                                                                    
                                                                                                    
                                                                                                    
                                                                                                    
                                                                                                    
                                                                                                    
                                                                                                    
                                                                                                    
                           
<?xpacket end="w"?></metadata>
<defs>
    <style>
      .cls-1 {
        fill-rule: evenodd;
      }
    </style>
  </defs>
  <path id="down" class="cls-1" d="M1065.08,1465.78a0.946,0.946,0,0,0,.72.19,0.292,0.292,0,0,0,.09.02,1.007,1.007,0,0,0,.92-0.59l11.95-9.35a1,1,0,0,0,.25-0.3v-0.95a1.194,1.194,0,0,0-.08-0.16,0.946,0.946,0,0,0-1.36-.17l-10.56,8.3V1421h-2v42.1l-11.32-8.63a1.141,1.141,0,0,0-.65-0.21,1.027,1.027,0,0,0-.82.39,0.992,0.992,0,0,0,.17,1.4Z" transform="translate(-1052 -1421)"/>
</svg>
